<mxfile host="Electron" agent="Mozilla/5.0 (Windows NT 10.0; Win64; x64) AppleWebKit/537.36 (KHTML, like Gecko) draw.io/26.2.15 Chrome/134.0.6998.205 Electron/35.2.1 Safari/537.36" version="26.2.15">
  <diagram name="Page-1" id="of_rWCsYgEdew_ym9TxW">
    <mxGraphModel dx="1158" dy="773" grid="1" gridSize="10" guides="1" tooltips="1" connect="1" arrows="1" fold="1" page="1" pageScale="1" pageWidth="850" pageHeight="1100" math="0" shadow="0">
      <root>
        <mxCell id="0" />
        <mxCell id="1" parent="0" />
        <mxCell id="rux1_51JPnNn9xXsk1tx-1" value="" style="rounded=0;whiteSpace=wrap;html=1;fillColor=none;dashed=1;" parent="1" vertex="1">
          <mxGeometry x="40" y="150" width="120" height="370" as="geometry" />
        </mxCell>
        <mxCell id="rux1_51JPnNn9xXsk1tx-2" value="&lt;font style=&quot;font-size: 14px;&quot;&gt;Sources&lt;/font&gt;" style="rounded=1;whiteSpace=wrap;html=1;strokeColor=none;" parent="1" vertex="1">
          <mxGeometry x="60" y="130" width="80" height="40" as="geometry" />
        </mxCell>
        <mxCell id="rux1_51JPnNn9xXsk1tx-4" value="" style="image;aspect=fixed;html=1;points=[];align=center;fontSize=12;image=img/lib/azure2/general/Folder_Blank.svg;" parent="1" vertex="1">
          <mxGeometry x="81.52" y="255" width="36.96" height="30" as="geometry" />
        </mxCell>
        <mxCell id="rux1_51JPnNn9xXsk1tx-7" value="&lt;b&gt;CRM&lt;/b&gt;" style="text;html=1;align=center;verticalAlign=middle;whiteSpace=wrap;rounded=0;" parent="1" vertex="1">
          <mxGeometry x="68.48" y="280" width="60" height="30" as="geometry" />
        </mxCell>
        <mxCell id="rux1_51JPnNn9xXsk1tx-30" style="edgeStyle=orthogonalEdgeStyle;rounded=0;orthogonalLoop=1;jettySize=auto;html=1;entryX=0;entryY=0.75;entryDx=0;entryDy=0;" parent="1" source="rux1_51JPnNn9xXsk1tx-8" target="rux1_51JPnNn9xXsk1tx-10" edge="1">
          <mxGeometry relative="1" as="geometry" />
        </mxCell>
        <mxCell id="rux1_51JPnNn9xXsk1tx-8" value="" style="image;aspect=fixed;html=1;points=[];align=center;fontSize=12;image=img/lib/azure2/general/Folder_Blank.svg;" parent="1" vertex="1">
          <mxGeometry x="80" y="390" width="36.96" height="30" as="geometry" />
        </mxCell>
        <mxCell id="rux1_51JPnNn9xXsk1tx-9" value="&lt;b&gt;ERP&lt;/b&gt;" style="text;html=1;align=center;verticalAlign=middle;whiteSpace=wrap;rounded=0;" parent="1" vertex="1">
          <mxGeometry x="68.48" y="415" width="60" height="30" as="geometry" />
        </mxCell>
        <mxCell id="rux1_51JPnNn9xXsk1tx-10" value="" style="rounded=0;whiteSpace=wrap;html=1;fillColor=#ffe6cc;strokeColor=#d79b00;fillStyle=hatch;" parent="1" vertex="1">
          <mxGeometry x="200" y="200" width="160" height="320" as="geometry" />
        </mxCell>
        <mxCell id="rux1_51JPnNn9xXsk1tx-11" value="&lt;b&gt;&lt;font style=&quot;font-size: 14px;&quot;&gt;Bronze Layer&lt;/font&gt;&lt;/b&gt;" style="rounded=1;whiteSpace=wrap;html=1;fillColor=#ffe6cc;strokeColor=#d79b00;" parent="1" vertex="1">
          <mxGeometry x="200" y="150" width="160" height="40" as="geometry" />
        </mxCell>
        <mxCell id="rux1_51JPnNn9xXsk1tx-12" value="&lt;span style=&quot;font-size: 14px;&quot;&gt;&lt;b&gt;crm_cust_info&lt;/b&gt;&lt;/span&gt;" style="rounded=1;whiteSpace=wrap;html=1;fillColor=#ffe6cc;strokeColor=#d79b00;" parent="1" vertex="1">
          <mxGeometry x="210" y="220" width="140" height="20" as="geometry" />
        </mxCell>
        <mxCell id="rux1_51JPnNn9xXsk1tx-13" value="&lt;span style=&quot;font-size: 14px;&quot;&gt;&lt;b&gt;crm_prd_info&lt;/b&gt;&lt;/span&gt;" style="rounded=1;whiteSpace=wrap;html=1;fillColor=#ffe6cc;strokeColor=#d79b00;" parent="1" vertex="1">
          <mxGeometry x="210" y="260" width="140" height="20" as="geometry" />
        </mxCell>
        <mxCell id="rux1_51JPnNn9xXsk1tx-14" value="&lt;span style=&quot;font-size: 14px;&quot;&gt;&lt;b&gt;crm_sales_details&lt;/b&gt;&lt;/span&gt;" style="rounded=1;whiteSpace=wrap;html=1;fillColor=#ffe6cc;strokeColor=#d79b00;" parent="1" vertex="1">
          <mxGeometry x="210" y="300" width="140" height="20" as="geometry" />
        </mxCell>
        <mxCell id="rux1_51JPnNn9xXsk1tx-15" value="&lt;span style=&quot;font-size: 14px;&quot;&gt;&lt;b&gt;erp_cust_az12&lt;/b&gt;&lt;/span&gt;" style="rounded=1;whiteSpace=wrap;html=1;fillColor=#ffe6cc;strokeColor=#d79b00;" parent="1" vertex="1">
          <mxGeometry x="210" y="360" width="140" height="20" as="geometry" />
        </mxCell>
        <mxCell id="rux1_51JPnNn9xXsk1tx-16" value="&lt;span style=&quot;font-size: 14px;&quot;&gt;&lt;b&gt;erp_loc_a101&lt;/b&gt;&lt;/span&gt;" style="rounded=1;whiteSpace=wrap;html=1;fillColor=#ffe6cc;strokeColor=#d79b00;" parent="1" vertex="1">
          <mxGeometry x="210" y="395" width="140" height="20" as="geometry" />
        </mxCell>
        <mxCell id="oHnKCqSjZ6p5e8-nYHuy-15" style="edgeStyle=orthogonalEdgeStyle;rounded=0;orthogonalLoop=1;jettySize=auto;html=1;entryX=0;entryY=0.75;entryDx=0;entryDy=0;" parent="1" source="rux1_51JPnNn9xXsk1tx-17" target="oHnKCqSjZ6p5e8-nYHuy-6" edge="1">
          <mxGeometry relative="1" as="geometry" />
        </mxCell>
        <mxCell id="rux1_51JPnNn9xXsk1tx-17" value="&lt;span style=&quot;font-size: 14px;&quot;&gt;&lt;b&gt;erp_px_cat_g1v2&lt;/b&gt;&lt;/span&gt;" style="rounded=1;whiteSpace=wrap;html=1;fillColor=#ffe6cc;strokeColor=#d79b00;" parent="1" vertex="1">
          <mxGeometry x="210" y="430" width="140" height="20" as="geometry" />
        </mxCell>
        <mxCell id="rux1_51JPnNn9xXsk1tx-19" value="&lt;b&gt;&lt;font style=&quot;font-size: 18px;&quot;&gt;Data Flow Diagram&lt;/font&gt;&lt;/b&gt;" style="rounded=1;whiteSpace=wrap;html=1;fillColor=none;strokeColor=none;" parent="1" vertex="1">
          <mxGeometry x="30" y="10" width="190" height="60" as="geometry" />
        </mxCell>
        <mxCell id="rux1_51JPnNn9xXsk1tx-21" style="edgeStyle=orthogonalEdgeStyle;rounded=0;orthogonalLoop=1;jettySize=auto;html=1;entryX=-0.005;entryY=0.101;entryDx=0;entryDy=0;entryPerimeter=0;" parent="1" source="rux1_51JPnNn9xXsk1tx-4" target="rux1_51JPnNn9xXsk1tx-10" edge="1">
          <mxGeometry relative="1" as="geometry" />
        </mxCell>
        <mxCell id="rux1_51JPnNn9xXsk1tx-22" style="edgeStyle=orthogonalEdgeStyle;rounded=0;orthogonalLoop=1;jettySize=auto;html=1;entryX=-0.01;entryY=0.222;entryDx=0;entryDy=0;entryPerimeter=0;" parent="1" source="rux1_51JPnNn9xXsk1tx-4" target="rux1_51JPnNn9xXsk1tx-10" edge="1">
          <mxGeometry relative="1" as="geometry" />
        </mxCell>
        <mxCell id="rux1_51JPnNn9xXsk1tx-25" style="edgeStyle=orthogonalEdgeStyle;rounded=0;orthogonalLoop=1;jettySize=auto;html=1;entryX=-0.016;entryY=0.347;entryDx=0;entryDy=0;entryPerimeter=0;" parent="1" source="rux1_51JPnNn9xXsk1tx-4" target="rux1_51JPnNn9xXsk1tx-10" edge="1">
          <mxGeometry relative="1" as="geometry" />
        </mxCell>
        <mxCell id="rux1_51JPnNn9xXsk1tx-27" style="edgeStyle=orthogonalEdgeStyle;rounded=0;orthogonalLoop=1;jettySize=auto;html=1;entryX=0;entryY=0.641;entryDx=0;entryDy=0;entryPerimeter=0;" parent="1" source="rux1_51JPnNn9xXsk1tx-8" target="rux1_51JPnNn9xXsk1tx-10" edge="1">
          <mxGeometry relative="1" as="geometry" />
        </mxCell>
        <mxCell id="rux1_51JPnNn9xXsk1tx-29" style="edgeStyle=orthogonalEdgeStyle;rounded=0;orthogonalLoop=1;jettySize=auto;html=1;entryX=-0.014;entryY=0.537;entryDx=0;entryDy=0;entryPerimeter=0;" parent="1" source="rux1_51JPnNn9xXsk1tx-8" target="rux1_51JPnNn9xXsk1tx-10" edge="1">
          <mxGeometry relative="1" as="geometry" />
        </mxCell>
        <mxCell id="oHnKCqSjZ6p5e8-nYHuy-1" value="&lt;span style=&quot;font-size: 14px;&quot;&gt;&lt;b&gt;Silver Layer&lt;/b&gt;&lt;/span&gt;" style="rounded=1;whiteSpace=wrap;html=1;fillColor=#f5f5f5;strokeColor=#666666;fontColor=#333333;" parent="1" vertex="1">
          <mxGeometry x="420" y="150" width="160" height="40" as="geometry" />
        </mxCell>
        <mxCell id="oHnKCqSjZ6p5e8-nYHuy-2" value="&lt;span style=&quot;font-size: 14px;&quot;&gt;&lt;b&gt;crm_cust_info&lt;/b&gt;&lt;/span&gt;" style="rounded=1;whiteSpace=wrap;html=1;fillColor=#f5f5f5;strokeColor=#666666;fontColor=#333333;" parent="1" vertex="1">
          <mxGeometry x="430" y="220" width="140" height="20" as="geometry" />
        </mxCell>
        <mxCell id="oHnKCqSjZ6p5e8-nYHuy-3" value="&lt;span style=&quot;font-size: 14px;&quot;&gt;&lt;b&gt;crm_prd_info&lt;/b&gt;&lt;/span&gt;" style="rounded=1;whiteSpace=wrap;html=1;fillColor=#f5f5f5;strokeColor=#666666;fontColor=#333333;" parent="1" vertex="1">
          <mxGeometry x="430" y="260" width="140" height="20" as="geometry" />
        </mxCell>
        <mxCell id="oHnKCqSjZ6p5e8-nYHuy-4" value="&lt;span style=&quot;font-size: 14px;&quot;&gt;&lt;b&gt;crm_sales_details&lt;/b&gt;&lt;/span&gt;" style="rounded=1;whiteSpace=wrap;html=1;fillColor=#f5f5f5;strokeColor=#666666;fontColor=#333333;" parent="1" vertex="1">
          <mxGeometry x="430" y="300" width="140" height="20" as="geometry" />
        </mxCell>
        <mxCell id="oHnKCqSjZ6p5e8-nYHuy-5" value="&lt;span style=&quot;font-size: 14px;&quot;&gt;&lt;b&gt;erp_cust_az12&lt;/b&gt;&lt;/span&gt;" style="rounded=1;whiteSpace=wrap;html=1;fillColor=#f5f5f5;strokeColor=#666666;fontColor=#333333;" parent="1" vertex="1">
          <mxGeometry x="430" y="360" width="140" height="20" as="geometry" />
        </mxCell>
        <mxCell id="oHnKCqSjZ6p5e8-nYHuy-6" value="" style="rounded=0;whiteSpace=wrap;html=1;fillColor=#f5f5f5;strokeColor=#666666;fillStyle=hatch;fontColor=#333333;" parent="1" vertex="1">
          <mxGeometry x="420" y="200" width="160" height="320" as="geometry" />
        </mxCell>
        <mxCell id="oHnKCqSjZ6p5e8-nYHuy-7" value="&lt;span style=&quot;font-size: 14px;&quot;&gt;&lt;b&gt;erp_loc_a101&lt;/b&gt;&lt;/span&gt;" style="rounded=1;whiteSpace=wrap;html=1;fillColor=#f5f5f5;strokeColor=#666666;fontColor=#333333;" parent="1" vertex="1">
          <mxGeometry x="430" y="395" width="140" height="20" as="geometry" />
        </mxCell>
        <mxCell id="oHnKCqSjZ6p5e8-nYHuy-8" value="&lt;span style=&quot;font-size: 14px;&quot;&gt;&lt;b&gt;erp_px_cat_g1v2&lt;/b&gt;&lt;/span&gt;" style="rounded=1;whiteSpace=wrap;html=1;fillColor=#f5f5f5;strokeColor=#666666;fontColor=#333333;" parent="1" vertex="1">
          <mxGeometry x="430" y="430" width="140" height="20" as="geometry" />
        </mxCell>
        <mxCell id="oHnKCqSjZ6p5e8-nYHuy-9" style="edgeStyle=orthogonalEdgeStyle;rounded=0;orthogonalLoop=1;jettySize=auto;html=1;exitX=1;exitY=0.5;exitDx=0;exitDy=0;entryX=0;entryY=0.093;entryDx=0;entryDy=0;entryPerimeter=0;" parent="1" source="rux1_51JPnNn9xXsk1tx-12" target="oHnKCqSjZ6p5e8-nYHuy-6" edge="1">
          <mxGeometry relative="1" as="geometry" />
        </mxCell>
        <mxCell id="oHnKCqSjZ6p5e8-nYHuy-10" style="edgeStyle=orthogonalEdgeStyle;rounded=0;orthogonalLoop=1;jettySize=auto;html=1;entryX=0.001;entryY=0.216;entryDx=0;entryDy=0;entryPerimeter=0;" parent="1" source="rux1_51JPnNn9xXsk1tx-13" target="oHnKCqSjZ6p5e8-nYHuy-6" edge="1">
          <mxGeometry relative="1" as="geometry" />
        </mxCell>
        <mxCell id="oHnKCqSjZ6p5e8-nYHuy-11" style="edgeStyle=orthogonalEdgeStyle;rounded=0;orthogonalLoop=1;jettySize=auto;html=1;entryX=0.004;entryY=0.342;entryDx=0;entryDy=0;entryPerimeter=0;" parent="1" source="rux1_51JPnNn9xXsk1tx-14" target="oHnKCqSjZ6p5e8-nYHuy-6" edge="1">
          <mxGeometry relative="1" as="geometry" />
        </mxCell>
        <mxCell id="oHnKCqSjZ6p5e8-nYHuy-13" style="edgeStyle=orthogonalEdgeStyle;rounded=0;orthogonalLoop=1;jettySize=auto;html=1;entryX=0.014;entryY=0.532;entryDx=0;entryDy=0;entryPerimeter=0;" parent="1" source="rux1_51JPnNn9xXsk1tx-15" target="oHnKCqSjZ6p5e8-nYHuy-6" edge="1">
          <mxGeometry relative="1" as="geometry" />
        </mxCell>
        <mxCell id="oHnKCqSjZ6p5e8-nYHuy-14" style="edgeStyle=orthogonalEdgeStyle;rounded=0;orthogonalLoop=1;jettySize=auto;html=1;entryX=0;entryY=0.641;entryDx=0;entryDy=0;entryPerimeter=0;" parent="1" source="rux1_51JPnNn9xXsk1tx-16" target="oHnKCqSjZ6p5e8-nYHuy-6" edge="1">
          <mxGeometry relative="1" as="geometry" />
        </mxCell>
        <mxCell id="CZZbWCy0wR855Ha6MTHz-13" value="&lt;span style=&quot;font-size: 14px;&quot;&gt;&lt;b&gt;Gold Layer&lt;/b&gt;&lt;/span&gt;" style="rounded=1;whiteSpace=wrap;html=1;fillColor=#fff2cc;strokeColor=#d6b656;" vertex="1" parent="1">
          <mxGeometry x="620" y="150" width="160" height="40" as="geometry" />
        </mxCell>
        <mxCell id="CZZbWCy0wR855Ha6MTHz-14" value="" style="rounded=0;whiteSpace=wrap;html=1;fillColor=#fff2cc;strokeColor=#d6b656;fillStyle=hatch;" vertex="1" parent="1">
          <mxGeometry x="620" y="200" width="160" height="320" as="geometry" />
        </mxCell>
        <mxCell id="CZZbWCy0wR855Ha6MTHz-15" value="&lt;span style=&quot;font-size: 14px;&quot;&gt;&lt;b&gt;fact_sales&lt;/b&gt;&lt;/span&gt;" style="rounded=1;whiteSpace=wrap;html=1;fillColor=#fff2cc;strokeColor=#d6b656;" vertex="1" parent="1">
          <mxGeometry x="630" y="255" width="140" height="20" as="geometry" />
        </mxCell>
        <mxCell id="CZZbWCy0wR855Ha6MTHz-16" value="&lt;span style=&quot;font-size: 14px;&quot;&gt;&lt;b&gt;dim_customers&lt;/b&gt;&lt;/span&gt;" style="rounded=1;whiteSpace=wrap;html=1;fillColor=#fff2cc;strokeColor=#d6b656;" vertex="1" parent="1">
          <mxGeometry x="630" y="340" width="140" height="20" as="geometry" />
        </mxCell>
        <mxCell id="CZZbWCy0wR855Ha6MTHz-17" value="&lt;span style=&quot;font-size: 14px;&quot;&gt;&lt;b&gt;dim_Products&lt;/b&gt;&lt;/span&gt;" style="rounded=1;whiteSpace=wrap;html=1;fillColor=#fff2cc;strokeColor=#d6b656;" vertex="1" parent="1">
          <mxGeometry x="630" y="380" width="140" height="20" as="geometry" />
        </mxCell>
        <mxCell id="CZZbWCy0wR855Ha6MTHz-19" value="" style="endArrow=classic;html=1;rounded=0;exitX=0.98;exitY=0.345;exitDx=0;exitDy=0;exitPerimeter=0;entryX=0.063;entryY=0.219;entryDx=0;entryDy=0;entryPerimeter=0;" edge="1" parent="1" source="oHnKCqSjZ6p5e8-nYHuy-6" target="CZZbWCy0wR855Ha6MTHz-14">
          <mxGeometry width="50" height="50" relative="1" as="geometry">
            <mxPoint x="590" y="440" as="sourcePoint" />
            <mxPoint x="640" y="390" as="targetPoint" />
          </mxGeometry>
        </mxCell>
        <mxCell id="CZZbWCy0wR855Ha6MTHz-20" value="" style="endArrow=classic;html=1;rounded=0;entryX=0;entryY=0.5;entryDx=0;entryDy=0;exitX=0.989;exitY=0.516;exitDx=0;exitDy=0;exitPerimeter=0;" edge="1" parent="1" source="oHnKCqSjZ6p5e8-nYHuy-6">
          <mxGeometry width="50" height="50" relative="1" as="geometry">
            <mxPoint x="589.8399999999999" y="360" as="sourcePoint" />
            <mxPoint x="629.9999999999999" y="343.36" as="targetPoint" />
          </mxGeometry>
        </mxCell>
        <mxCell id="CZZbWCy0wR855Ha6MTHz-21" value="" style="endArrow=classic;html=1;rounded=0;exitX=0.993;exitY=0.658;exitDx=0;exitDy=0;exitPerimeter=0;" edge="1" parent="1" source="oHnKCqSjZ6p5e8-nYHuy-6">
          <mxGeometry width="50" height="50" relative="1" as="geometry">
            <mxPoint x="590" y="440" as="sourcePoint" />
            <mxPoint x="630" y="340" as="targetPoint" />
          </mxGeometry>
        </mxCell>
        <mxCell id="CZZbWCy0wR855Ha6MTHz-22" value="" style="endArrow=classic;html=1;rounded=0;exitX=1;exitY=0.75;exitDx=0;exitDy=0;entryX=0;entryY=0.75;entryDx=0;entryDy=0;" edge="1" parent="1" source="oHnKCqSjZ6p5e8-nYHuy-6" target="CZZbWCy0wR855Ha6MTHz-17">
          <mxGeometry width="50" height="50" relative="1" as="geometry">
            <mxPoint x="590" y="440" as="sourcePoint" />
            <mxPoint x="640" y="390" as="targetPoint" />
          </mxGeometry>
        </mxCell>
        <mxCell id="CZZbWCy0wR855Ha6MTHz-25" value="" style="endArrow=classic;html=1;rounded=0;exitX=0.999;exitY=0.095;exitDx=0;exitDy=0;exitPerimeter=0;entryX=0.063;entryY=0.469;entryDx=0;entryDy=0;entryPerimeter=0;" edge="1" parent="1" source="oHnKCqSjZ6p5e8-nYHuy-6" target="CZZbWCy0wR855Ha6MTHz-14">
          <mxGeometry width="50" height="50" relative="1" as="geometry">
            <mxPoint x="580" y="390" as="sourcePoint" />
            <mxPoint x="630" y="340" as="targetPoint" />
          </mxGeometry>
        </mxCell>
        <mxCell id="CZZbWCy0wR855Ha6MTHz-26" value="" style="endArrow=classic;html=1;rounded=0;exitX=1.003;exitY=0.227;exitDx=0;exitDy=0;exitPerimeter=0;" edge="1" parent="1" source="oHnKCqSjZ6p5e8-nYHuy-6">
          <mxGeometry width="50" height="50" relative="1" as="geometry">
            <mxPoint x="610" y="360" as="sourcePoint" />
            <mxPoint x="630" y="400" as="targetPoint" />
          </mxGeometry>
        </mxCell>
      </root>
    </mxGraphModel>
  </diagram>
</mxfile>
